<svg width="95" height="30" viewBox="0 0 95 30" fill="none" xmlns="http://www.w3.org/2000/svg">
<path d="M14.8409 8.36364V20H13.142V8.36364H14.8409ZM20.8026 20.1761C19.9844 20.1761 19.2704 19.9886 18.6605 19.6136C18.0507 19.2386 17.5772 18.714 17.2401 18.0398C16.9029 17.3655 16.7344 16.5777 16.7344 15.6761C16.7344 14.7708 16.9029 13.9792 17.2401 13.3011C17.5772 12.6231 18.0507 12.0966 18.6605 11.7216C19.2704 11.3466 19.9844 11.1591 20.8026 11.1591C21.6207 11.1591 22.3348 11.3466 22.9446 11.7216C23.5545 12.0966 24.0279 12.6231 24.3651 13.3011C24.7022 13.9792 24.8707 14.7708 24.8707 15.6761C24.8707 16.5777 24.7022 17.3655 24.3651 18.0398C24.0279 18.714 23.5545 19.2386 22.9446 19.6136C22.3348 19.9886 21.6207 20.1761 20.8026 20.1761ZM20.8082 18.75C21.3385 18.75 21.7779 18.6098 22.1264 18.3295C22.4749 18.0492 22.7325 17.6761 22.8991 17.2102C23.0696 16.7443 23.1548 16.2311 23.1548 15.6705C23.1548 15.1136 23.0696 14.6023 22.8991 14.1364C22.7325 13.6667 22.4749 13.2898 22.1264 13.0057C21.7779 12.7216 21.3385 12.5795 20.8082 12.5795C20.2741 12.5795 19.831 12.7216 19.4787 13.0057C19.1302 13.2898 18.8707 13.6667 18.7003 14.1364C18.5336 14.6023 18.4503 15.1136 18.4503 15.6705C18.4503 16.2311 18.5336 16.7443 18.7003 17.2102C18.8707 17.6761 19.1302 18.0492 19.4787 18.3295C19.831 18.6098 20.2741 18.75 20.8082 18.75ZM29.3068 20.1932C28.7538 20.1932 28.2538 20.0909 27.8068 19.8864C27.3598 19.678 27.0057 19.3769 26.7443 18.983C26.4867 18.589 26.358 18.1061 26.358 17.5341C26.358 17.0417 26.4527 16.6364 26.642 16.3182C26.8314 16 27.0871 15.7481 27.4091 15.5625C27.7311 15.3769 28.0909 15.2367 28.4886 15.142C28.8864 15.0473 29.2917 14.9754 29.7045 14.9261C30.2273 14.8655 30.6515 14.8163 30.9773 14.7784C31.303 14.7367 31.5398 14.6705 31.6875 14.5795C31.8352 14.4886 31.9091 14.3409 31.9091 14.1364V14.0966C31.9091 13.6004 31.7689 13.2159 31.4886 12.9432C31.2121 12.6705 30.7992 12.5341 30.25 12.5341C29.678 12.5341 29.2273 12.661 28.8977 12.9148C28.572 13.1648 28.3466 13.4432 28.2216 13.75L26.625 13.3864C26.8144 12.8561 27.0909 12.428 27.4545 12.1023C27.822 11.7727 28.2443 11.5341 28.7216 11.3864C29.1989 11.2348 29.7008 11.1591 30.2273 11.1591C30.5758 11.1591 30.9451 11.2008 31.3352 11.2841C31.7292 11.3636 32.0966 11.5114 32.4375 11.7273C32.7822 11.9432 33.0644 12.2519 33.2841 12.6534C33.5038 13.0511 33.6136 13.5682 33.6136 14.2045V20H31.9545V18.8068H31.8864C31.7765 19.0265 31.6117 19.2424 31.392 19.4545C31.1723 19.6667 30.8902 19.8428 30.5455 19.983C30.2008 20.1231 29.7879 20.1932 29.3068 20.1932ZM29.6761 18.8295C30.1458 18.8295 30.5473 18.7367 30.8807 18.5511C31.2178 18.3655 31.4735 18.1231 31.6477 17.8239C31.8258 17.5208 31.9148 17.197 31.9148 16.8523V15.7273C31.8542 15.7879 31.7367 15.8447 31.5625 15.8977C31.392 15.947 31.197 15.9905 30.9773 16.0284C30.7576 16.0625 30.5436 16.0947 30.3352 16.125C30.1269 16.1515 29.9527 16.1742 29.8125 16.1932C29.483 16.2348 29.1818 16.3049 28.9091 16.4034C28.6402 16.5019 28.4242 16.6439 28.2614 16.8295C28.1023 17.0114 28.0227 17.2538 28.0227 17.5568C28.0227 17.9773 28.178 18.2955 28.4886 18.5114C28.7992 18.7235 29.1951 18.8295 29.6761 18.8295ZM39.1435 20.1705C38.4389 20.1705 37.8101 19.9905 37.2571 19.6307C36.7079 19.267 36.276 18.75 35.9616 18.0795C35.651 17.4053 35.4957 16.5966 35.4957 15.6534C35.4957 14.7102 35.6529 13.9034 35.9673 13.233C36.2855 12.5625 36.7211 12.0492 37.2741 11.6932C37.8272 11.3371 38.4541 11.1591 39.1548 11.1591C39.6965 11.1591 40.1321 11.25 40.4616 11.4318C40.795 11.6098 41.0526 11.8182 41.2344 12.0568C41.42 12.2955 41.5639 12.5057 41.6662 12.6875H41.7685V8.36364H43.4673V20H41.8082V18.642H41.6662C41.5639 18.8277 41.4162 19.0398 41.223 19.2784C41.0336 19.517 40.7723 19.7254 40.4389 19.9034C40.1056 20.0814 39.6738 20.1705 39.1435 20.1705ZM39.5185 18.7216C40.0071 18.7216 40.42 18.5928 40.7571 18.3352C41.098 18.0739 41.3556 17.7121 41.5298 17.25C41.7079 16.7879 41.7969 16.25 41.7969 15.6364C41.7969 15.0303 41.7098 14.5 41.5355 14.0455C41.3613 13.5909 41.1056 13.2367 40.7685 12.983C40.4313 12.7292 40.0147 12.6023 39.5185 12.6023C39.0071 12.6023 38.581 12.7348 38.2401 13C37.8991 13.2652 37.6416 13.6269 37.4673 14.0852C37.2969 14.5436 37.2116 15.0606 37.2116 15.6364C37.2116 16.2197 37.2988 16.7443 37.473 17.2102C37.6473 17.6761 37.9048 18.0455 38.2457 18.3182C38.5904 18.5871 39.0147 18.7216 39.5185 18.7216ZM45.892 20V11.2727H47.5909V20H45.892ZM46.75 9.92614C46.4545 9.92614 46.2008 9.82765 45.9886 9.63068C45.7803 9.42992 45.6761 9.19129 45.6761 8.91477C45.6761 8.63447 45.7803 8.39583 45.9886 8.19886C46.2008 7.99811 46.4545 7.89773 46.75 7.89773C47.0455 7.89773 47.2973 7.99811 47.5057 8.19886C47.7178 8.39583 47.8239 8.63447 47.8239 8.91477C47.8239 9.19129 47.7178 9.42992 47.5057 9.63068C47.2973 9.82765 47.0455 9.92614 46.75 9.92614ZM51.5753 14.8182V20H49.8764V11.2727H51.5071V12.6932H51.6151C51.8158 12.2311 52.1302 11.8598 52.5582 11.5795C52.9901 11.2992 53.5336 11.1591 54.1889 11.1591C54.7836 11.1591 55.3045 11.2841 55.7514 11.5341C56.1984 11.7803 56.545 12.1477 56.7912 12.6364C57.0374 13.125 57.1605 13.7292 57.1605 14.4489V20H55.4616V14.6534C55.4616 14.0208 55.2969 13.5265 54.9673 13.1705C54.6378 12.8106 54.1851 12.6307 53.6094 12.6307C53.2154 12.6307 52.8651 12.7159 52.5582 12.8864C52.2552 13.0568 52.0147 13.3068 51.8366 13.6364C51.6624 13.9621 51.5753 14.3561 51.5753 14.8182ZM63.098 23.4545C62.4048 23.4545 61.8082 23.3636 61.3082 23.1818C60.812 23 60.4067 22.7595 60.0923 22.4602C59.7779 22.161 59.5431 21.8333 59.3878 21.4773L60.848 20.875C60.9503 21.0417 61.0866 21.2178 61.2571 21.4034C61.4313 21.5928 61.6662 21.7538 61.9616 21.8864C62.2609 22.0189 62.6454 22.0852 63.1151 22.0852C63.759 22.0852 64.2912 21.928 64.7116 21.6136C65.1321 21.303 65.3423 20.8068 65.3423 20.125V18.4091H65.2344C65.1321 18.5947 64.9844 18.8011 64.7912 19.0284C64.6018 19.2557 64.3404 19.4527 64.0071 19.6193C63.6738 19.786 63.2401 19.8693 62.706 19.8693C62.0166 19.8693 61.3954 19.7083 60.8423 19.3864C60.2931 19.0606 59.8575 18.5814 59.5355 17.9489C59.2173 17.3125 59.0582 16.5303 59.0582 15.6023C59.0582 14.6742 59.2154 13.8788 59.5298 13.2159C59.848 12.553 60.2836 12.0455 60.8366 11.6932C61.3897 11.3371 62.0166 11.1591 62.7173 11.1591C63.259 11.1591 63.6965 11.25 64.0298 11.4318C64.3632 11.6098 64.6226 11.8182 64.8082 12.0568C64.9976 12.2955 65.1435 12.5057 65.2457 12.6875H65.3707V11.2727H67.0355V20.1932C67.0355 20.9432 66.8613 21.5587 66.5128 22.0398C66.1643 22.5208 65.6927 22.8769 65.098 23.108C64.5071 23.339 63.8404 23.4545 63.098 23.4545ZM63.081 18.4602C63.5696 18.4602 63.9825 18.3466 64.3196 18.1193C64.6605 17.8883 64.9181 17.5587 65.0923 17.1307C65.2704 16.6989 65.3594 16.1818 65.3594 15.5795C65.3594 14.9924 65.2723 14.4754 65.098 14.0284C64.9238 13.5814 64.6681 13.233 64.331 12.983C63.9938 12.7292 63.5772 12.6023 63.081 12.6023C62.5696 12.6023 62.1435 12.7348 61.8026 13C61.4616 13.2614 61.2041 13.6174 61.0298 14.0682C60.8594 14.5189 60.7741 15.0227 60.7741 15.5795C60.7741 16.1515 60.8613 16.6534 61.0355 17.0852C61.2098 17.517 61.4673 17.8542 61.8082 18.0966C62.1529 18.339 62.5772 18.4602 63.081 18.4602ZM70.4332 20.108C70.1226 20.108 69.8556 19.9981 69.6321 19.7784C69.4086 19.5549 69.2969 19.286 69.2969 18.9716C69.2969 18.661 69.4086 18.3958 69.6321 18.1761C69.8556 17.9527 70.1226 17.8409 70.4332 17.8409C70.7438 17.8409 71.0109 17.9527 71.2344 18.1761C71.4579 18.3958 71.5696 18.661 71.5696 18.9716C71.5696 19.1799 71.5166 19.3712 71.4105 19.5455C71.3082 19.7159 71.1719 19.8523 71.0014 19.9545C70.831 20.0568 70.6416 20.108 70.4332 20.108ZM74.9645 20.108C74.6539 20.108 74.3868 19.9981 74.1634 19.7784C73.9399 19.5549 73.8281 19.286 73.8281 18.9716C73.8281 18.661 73.9399 18.3958 74.1634 18.1761C74.3868 17.9527 74.6539 17.8409 74.9645 17.8409C75.2751 17.8409 75.5421 17.9527 75.7656 18.1761C75.9891 18.3958 76.1009 18.661 76.1009 18.9716C76.1009 19.1799 76.0478 19.3712 75.9418 19.5455C75.8395 19.7159 75.7031 19.8523 75.5327 19.9545C75.3622 20.0568 75.1728 20.108 74.9645 20.108ZM79.4957 20.108C79.1851 20.108 78.9181 19.9981 78.6946 19.7784C78.4711 19.5549 78.3594 19.286 78.3594 18.9716C78.3594 18.661 78.4711 18.3958 78.6946 18.1761C78.9181 17.9527 79.1851 17.8409 79.4957 17.8409C79.8063 17.8409 80.0734 17.9527 80.2969 18.1761C80.5204 18.3958 80.6321 18.661 80.6321 18.9716C80.6321 19.1799 80.5791 19.3712 80.473 19.5455C80.3707 19.7159 80.2344 19.8523 80.0639 19.9545C79.8935 20.0568 79.7041 20.108 79.4957 20.108Z" fill="black"/>
</svg>
